<svg xmlns="http://www.w3.org/2000/svg" version="1.1" xmlns:xlink="http://www.w3.org/1999/xlink" width="512" height="512" x="0" y="0" viewBox="0 0 510 510" style="enable-background:new 0 0 512 512" xml:space="preserve" class=""><g><g data-name="Layer 2"><g data-name="02.number_1"><path d="M255 23a232.07 232.07 0 0 1 90.3 445.78A232.07 232.07 0 0 1 164.7 41.22 230.57 230.57 0 0 1 255 23m0-23C114.17 0 0 114.17 0 255c0 140.83 114.17 255 255 255 140.83 0 255-114.17 255-255C510 114.17 395.83 0 255 0z" fill="#ffffff" opacity="1" data-original="#000000" class=""></path><path d="M296.45 150v210h-48V200.7l-37.2 10.2-11.7-41.1 54.9-19.8z" fill="#ffffff" opacity="1" data-original="#000000" class=""></path></g></g></g></svg>