<svg xmlns="http://www.w3.org/2000/svg" version="1.1" xmlns:xlink="http://www.w3.org/1999/xlink" width="512" height="512" x="0" y="0" viewBox="0 0 510 510" style="enable-background:new 0 0 512 512" xml:space="preserve" class=""><g><g data-name="Layer 2"><g data-name="03.number_2"><path d="M255 23a232.07 232.07 0 0 1 90.3 445.78A232.07 232.07 0 0 1 164.7 41.22 230.57 230.57 0 0 1 255 23m0-23C114.17 0 0 114.17 0 255c0 140.83 114.17 255 255 255 140.83 0 255-114.17 255-255C510 114.17 395.83 0 255 0z" fill="#ffffff" opacity="1" data-original="#000000" class=""></path><path d="m184.65 327.3 70.5-73.2c12.3-12.6 21.3-24.9 21.3-37.2 0-13.2-8.4-22.2-22.5-22.2-14.7 0-25.2 9.6-30.9 22.8l-40.5-23.7c13.5-31.2 41.7-45.9 70.8-45.9 37.5 0 71.1 24.6 71.1 66.9 0 25.2-13.5 46.8-32.7 66L257 315.9h70.5v46.2H184.65z" fill="#ffffff" opacity="1" data-original="#000000" class=""></path></g></g></g></svg>