<svg xmlns="http://www.w3.org/2000/svg" version="1.1" xmlns:xlink="http://www.w3.org/1999/xlink" width="512" height="512" x="0" y="0" viewBox="0 0 60 60" style="enable-background:new 0 0 512 512" xml:space="preserve" class=""><g><path d="M51 40a1 1 0 0 0 1-1v-1a1 1 0 0 0-2 0v1a1 1 0 0 0 1 1zM49 40h-1a1 1 0 0 0 0 2h1a1 1 0 0 0 0-2zM51 42a1 1 0 0 0-1 1v1a1 1 0 0 0 2 0v-1a1 1 0 0 0-1-1zM55 41a1 1 0 0 0-1-1h-1a1 1 0 0 0 0 2h1a1 1 0 0 0 1-1zM34 40h-2v-2a1 1 0 0 0-2 0v2h-2a1 1 0 0 0 0 2h2v2a1 1 0 0 0 2 0v-2h2a1 1 0 0 0 0-2zM39 44h-1a1 1 0 0 0 0 2h1a1 1 0 0 0 0-2zM44 44h-1a1 1 0 0 0 0 2h1a1 1 0 0 0 0-2z" fill="#000000" opacity="1" data-original="#000000" class=""></path><path d="M59.981 40.908A9.2 9.2 0 0 0 52 32.058V4a4 4 0 0 0-4-4H4a4 4 0 0 0-4 4v40a4 4 0 0 0 4 4h12v2.465l-5.555 3.7A1 1 0 0 0 10 55v3a2 2 0 0 0 2 2h28a2 2 0 0 0 2-2v-3a1 1 0 0 0-.479-.854l-5.723-3.5.074-.132a1 1 0 0 1 .873-.514h8.51a1 1 0 0 1 .873.514l3.74 6.715A5.409 5.409 0 0 0 60 54.59v-13.3c0-.056-.007-.11-.008-.165S60 41.041 60 41a.937.937 0 0 0-.019-.092zM4 2h44a2 2 0 0 1 2 2v28.056A8.907 8.907 0 0 0 44.3 35h-6.59a8.926 8.926 0 0 0-15.11 3H2V4a2 2 0 0 1 2-2zm18 52h-7.7l3-2H22zM2 44v-4h20.1c-.041.3-.067.6-.079.907 0 .032-.019.06-.019.093s.008.081.008.123-.01.111-.01.167V46H4a2 2 0 0 1-2-2zm20 4v2h-4v-2zm-10 8h10.208c.197.733.55 1.415 1.032 2H12zm19.6 2c.201-.242.382-.5.539-.773L32.817 56H40v2zm5.853-4h-3.522l.893-1.6zM58 54.59a3.41 3.41 0 0 1-6.386 1.664l-3.738-6.713A3 3 0 0 0 45.255 48h-8.51a3 3 0 0 0-2.621 1.541l-3.736 6.71A3.409 3.409 0 0 1 24 54.59v-7.957a8.976 8.976 0 0 0 2.5 2.167 1 1 0 1 0 1-1.731 7.026 7.026 0 0 1-3.492-5.942A7.159 7.159 0 0 1 30.942 34a6.852 6.852 0 0 1 5.434 2.531 6.987 6.987 0 0 1 1.4 2.719 1 1 0 0 0 1.224.719 1 1 0 0 0 .719-1.219 9.037 9.037 0 0 0-.668-1.75h3.9a9.037 9.037 0 0 0-.666 1.75 1 1 0 1 0 1.934.5A7.045 7.045 0 0 1 51 34h.058a7.158 7.158 0 0 1 6.934 7.121 7.021 7.021 0 0 1-3.492 5.943 1 1 0 1 0 1 1.731 8.969 8.969 0 0 0 2.5-2.161z" fill="#000000" opacity="1" data-original="#000000" class=""></path><path d="M18.293 27.707a1 1 0 0 0 1.414-1.414L12.414 19l7.293-7.293a1 1 0 0 0-1.414-1.414l-8 8a1 1 0 0 0 0 1.414zM32.293 27.707a1 1 0 0 0 1.414 0l8-8a1 1 0 0 0 0-1.414l-8-8a1 1 0 0 0-1.414 1.414L39.586 19l-7.293 7.293a1 1 0 0 0 0 1.414zM22.649 27.937a1 1 0 0 0 1.288-.586l6-16a1 1 0 1 0-1.874-.7l-6 16a1 1 0 0 0 .586 1.286z" fill="#000000" opacity="1" data-original="#000000" class=""></path></g></svg>